# File created by Blade
# Date/Time:  Fri Jan 16 15:45:56 2015
#---------------------------------------------------------
:version 1.10
:name HOM
:units
  mass 1.0
  length 1.000000
  angle deg
:documentation
     Acclaim Skeleton File
:root
   axis xyz
   order TX TY TZ RX RY RZ
   position 0.000000 0.000000 0.000000
   orientation 0 0 0
:bonedata
   begin
      id 1
      name Spine_dum
      direction 0.000000 1.000000 0.000000
      length 7.170412
      axis 0.0 0.0 0.0 xyz
   end
   begin
      id 2
      name LeftUpLeg_dum
      direction 1.000000 0.000000 0.000000
      length 4.318350
      axis 0.0 0.0 0.0 xyz
   end
   begin
      id 3
      name RightUpLeg_dum
      direction -1.000000 0.000000 0.000000
      length 4.318350
      axis 0.0 0.0 0.0 xyz
   end
   begin
      id 4
      name Spine
      direction 0.000000 1.000000 0.000000
      length 0.000000
      axis 0.0 0.0 0.0 xyz
      dof rx ry rz
   end
   begin
      id 5
      name Spine_dum1
      direction 0.000000 1.000000 0.000000
      length 14.276153
      axis 0.0 0.0 0.0 xyz
   end
   begin
      id 6
      name Spine_dum2
      direction 0.000000 1.000000 0.000000
      length 10.718243
      axis 0.0 0.0 0.0 xyz
   end
   begin
      id 7
      name Spine_dum3
      direction 0.000000 1.000000 0.000000
      length 10.718243
      axis 0.0 0.0 0.0 xyz
   end
   begin
      id 8
      name Head
      direction 0.000000 1.000000 0.000000
      length 4.527550
      axis 0.0 0.0 0.0 xyz
      dof rx ry rz
   end
   begin
      id 9
      name LeftShoulder
      direction 1.000000 0.000000 0.000000
      length 7.058872
      axis 0.0 0.0 -90.0 xyz
      dof rx ry rz
   end
   begin
      id 10
      name LeftArm
      direction 1.000000 0.000000 0.000000
      length 10.955525
      axis 0.0 0.0 -90.0 xyz
      dof rx ry rz
   end
   begin
      id 11
      name LeftForeArm
      direction 1.000000 0.000000 0.000000
      length 8.193716
      axis 0.0 0.0 -90.0 xyz
      dof ry rz rx
   end
   begin
      id 12
      name LeftHand
      direction 0.000000 0.000000 0.000000
      length 0.000000
      axis 0.0 0.0 -90.0 xyz
      dof rx ry rz
   end
   begin
      id 13
      name LeftHand_dum1
      direction 0.000000 0.000000 0.000000
      length 0.000000
      axis 0.0 0.0 -90.0 xyz
   end
   begin
      id 14
      name LeftHand_dum2
      direction 1.000000 0.000000 0.000000
      length 3.937000
      axis 0.0 0.0 -90.0 xyz
   end
   begin
      id 15
      name LeftHandThumb1
      direction 0.000000 0.000000 1.000000
      length 3.937000
      axis 0.0 0.0 -90.0 xyz
      dof rx rz ry
   end
   begin
      id 16
      name RightShoulder
      direction -1.000000 0.000000 0.000000
      length 7.058872
      axis 0.0 0.0 90.0 xyz
      dof rx ry rz
   end
   begin
      id 17
      name RightArm
      direction -1.000000 0.000000 0.000000
      length 10.955525
      axis 0.0 0.0 90.0 xyz
      dof rx ry rz
   end
   begin
      id 18
      name RightForeArm
      direction -1.000000 0.000000 0.000000
      length 8.193716
      axis 0.0 0.0 90.0 xyz
      dof ry rz rx
   end
   begin
      id 19
      name RightHand
      direction 0.000000 0.000000 0.000000
      length 0.000000
      axis 0.0 0.0 90.0 xyz
      dof rx ry rz
   end
   begin
      id 20
      name RightHand_dum1
      direction 0.000000 0.000000 0.000000
      length 0.000000
      axis 0.0 0.0 90.0 xyz
   end
   begin
      id 21
      name RightHand_dum2
      direction -1.000000 0.000000 0.000000
      length 3.937000
      axis 0.0 0.0 90.0 xyz
   end
   begin
      id 22
      name RightHandThumb1
      direction 0.000000 0.000000 1.000000
      length 3.937000
      axis 0.0 0.0 90.0 xyz
      dof rx rz ry
   end
   begin
      id 23
      name LeftUpLeg
      direction 0.000000 -1.000000 0.000000
      length 17.323638
      axis 0.0 0.0 0.0 xyz
      dof rx ry rz
   end
   begin
      id 24
      name LeftLeg
      direction 0.000000 -1.000000 0.000000
      length 16.270368
      axis 0.0 0.0 0.0 xyz
      dof rx ry rz
   end
   begin
      id 25
      name LeftFoot
      direction 0.000000 -0.258819 0.965926
      length 4.922846
      axis 15.0 0.0 0.0 xyz
      dof rx ry rz
   end
   begin
      id 26
      name LeftToeBase
      direction 0.000000 0.000000 1.000000
      length 2.952750
      axis 0.0 0.0 0.0 xyz
      dof rx ry rz
   end
   begin
      id 27
      name RightUpLeg
      direction 0.000000 -1.000000 0.000000
      length 17.323638
      axis 0.0 0.0 0.0 xyz
      dof rx ry rz
   end
   begin
      id 28
      name RightLeg
      direction 0.000000 -1.000000 0.000000
      length 16.270368
      axis 0.0 0.0 0.0 xyz
      dof rx ry rz
   end
   begin
      id 29
      name RightFoot
      direction 0.000000 -0.258819 0.965926
      length 4.922846
      axis 15.0 0.0 0.0 xyz
      dof rx ry rz
   end
   begin
      id 30
      name RightToeBase
      direction 0.000000 0.000000 1.000000
      length 2.952750
      axis 0.0 0.0 0.0 xyz
      dof rx ry rz
   end
:hierarchy
   begin
      root Spine_dum LeftUpLeg_dum RightUpLeg_dum
      Spine_dum Spine
      LeftUpLeg_dum LeftUpLeg
      RightUpLeg_dum RightUpLeg
      Spine Spine_dum1 Spine_dum2 Spine_dum3
      Spine_dum1 Head
      Spine_dum2 LeftShoulder
      Spine_dum3 RightShoulder
      LeftShoulder LeftArm
      LeftArm LeftForeArm
      LeftForeArm LeftHand
      LeftHand LeftHand_dum1 LeftHand_dum2
      LeftHand_dum1 LeftHandThumb1
      RightShoulder RightArm
      RightArm RightForeArm
      RightForeArm RightHand
      RightHand RightHand_dum1 RightHand_dum2
      RightHand_dum1 RightHandThumb1
      LeftUpLeg LeftLeg
      LeftLeg LeftFoot
      LeftFoot LeftToeBase
      RightUpLeg RightLeg
      RightLeg RightFoot
      RightFoot RightToeBase
   end

# File created by Blade
# Date/Time:  Fri Jan 16 15:45:48 2015
# Frame Rate: 120.000 fps
#------------------------------------------------------
:FULLY-SPECIFIED
:DEGREES
827
root -5.433325 35.351074 -10.358319 0.973022 -0.356185 -4.079427
Spine -5.656882 0.913395 2.060486
Head -7.791198 -0.464273 -4.040269
LeftShoulder -21.283007 9.346078 -16.035229
LeftArm 20.629783 15.850162 -67.741951
LeftForeArm 14.689013 -0.000000 12.164334
LeftHand 2.318332 -0.000000 -8.856243
LeftHandThumb1 -26.253704 0.000000 33.147579
RightShoulder -7.089206 19.866001 -49.630817
RightArm 34.035230 2.597159 -18.152510
RightForeArm -73.787673 -0.000000 147.126276
RightHand 9.182811 -0.000000 -20.123590
RightHandThumb1 -24.326973 -0.000000 -32.862282
LeftUpLeg 7.120799 12.217027 4.905104
LeftLeg -9.140596 -0.000000 0.000000
LeftFoot -12.908136 24.045880 -10.676713
LeftToeBase 21.387540 -0.000000 -0.000000
RightUpLeg 5.956116 -9.048902 0.754913
RightLeg -4.918091 -0.000000 0.000000
RightFoot -4.771526 -25.716277 7.340458
RightToeBase 12.042655 -0.000000 -0.000000
828
root -5.431800 35.350474 -10.357487 0.972912 -0.351788 -4.076162
Spine -5.654347 0.889878 2.093419
Head -7.766895 -0.284193 -4.075679
LeftShoulder -21.277393 9.321605 -16.020467
LeftArm 20.609346 15.903252 -67.749341
LeftForeArm 14.661516 -0.000000 12.132916
LeftHand 2.318015 -0.000000 -8.839151
LeftHandThumb1 -26.253704 0.000000 33.147579
RightShoulder -7.197076 19.990552 -49.699561
RightArm 33.976923 3.067124 -17.920642
RightForeArm -73.338974 -0.000000 146.259650
RightHand 9.943835 0.000000 -20.847462
RightHandThumb1 -24.326973 -0.000000 -32.862282
LeftUpLeg 7.120152 12.196101 4.899598
LeftLeg -9.136962 -0.000000 0.000000
LeftFoot -12.900945 24.064519 -10.633027
LeftToeBase 21.349630 -0.000000 -0.000000
RightUpLeg 5.957458 -9.035082 0.750431
RightLeg -4.918164 -0.000000 0.000000
RightFoot -4.774849 -25.733449 7.378093
RightToeBase 11.968694 -0.000000 -0.000000
829
root -5.430225 35.349826 -10.355943 0.964153 -0.359829 -4.076616
Spine -5.654560 0.871845 2.141801
Head -7.705700 -0.098160 -4.126707
LeftShoulder -21.266569 9.312610 -16.009366
LeftArm 20.596871 15.930608 -67.770075
LeftForeArm 14.654656 -0.000000 12.090942
LeftHand 2.341023 -0.000000 -8.841101
LeftHandThumb1 -26.253704 0.000000 33.147579
RightShoulder -7.272230 20.108623 -49.771858
RightArm 33.864201 3.656077 -17.635011
RightForeArm -73.274204 -0.000000 145.269077
RightHand 13.737839 -0.000000 -21.274679
RightHandThumb1 -24.326973 -0.000000 -32.862282
LeftUpLeg 7.134949 12.188809 4.899037
LeftLeg -9.139462 -0.000000 0.000000
LeftFoot -12.916415 24.082243 -10.630764
LeftToeBase 21.380077 -0.000000 -0.000000
RightUpLeg 5.964593 -9.003968 0.749199
RightLeg -4.912725 -0.000000 0.000000
RightFoot -4.796497 -25.753764 7.406823
RightToeBase 11.986269 -0.000000 -0.000000
830
root -5.429412 35.348202 -10.354798 0.955241 -0.364236 -4.080731
Spine -5.666158 0.854879 2.190139
Head -7.695547 -0.453592 -4.090454
LeftShoulder -21.231160 9.333139 -15.987654
LeftArm 20.580809 15.945624 -67.807720
LeftForeArm 14.681034 -0.000000 12.080998
LeftHand 2.333531 0.000000 -8.849581
LeftHandThumb1 -26.253704 0.000000 33.147579
RightShoulder -7.272469 20.227789 -49.832636
RightArm 33.640172 4.107284 -17.378715
RightForeArm -72.983907 -0.000000 144.094675
RightHand 13.464383 -0.000000 -21.429790
RightHandThumb1 -24.326973 -0.000000 -32.862282
LeftUpLeg 7.144387 12.194018 4.904149
LeftLeg -9.132537 -0.000000 0.000000
LeftFoot -12.932331 24.077570 -10.611564
LeftToeBase 21.391563 -0.000000 -0.000000
RightUpLeg 5.970590 -8.982989 0.750034
RightLeg -4.901187 -0.000000 0.000000
RightFoot -4.811779 -25.776383 7.324288
RightToeBase 12.076617 -0.000000 -0.000000
831
root -5.428045 35.347313 -10.353651 0.937225 -0.378942 -4.080759
Spine -5.664859 0.831453 2.235888
Head -7.677118 -0.707913 -4.073463
LeftShoulder -21.203257 9.320435 -15.962345
LeftArm 20.535853 15.946305 -67.861652
LeftForeArm 14.757730 0.000000 12.083626
LeftHand 2.287899 -0.000000 -8.873771
LeftHandThumb1 -26.253704 0.000000 33.147579
RightShoulder -7.282557 20.327215 -49.855141
RightArm 33.428495 4.667298 -17.162027
RightForeArm -72.606334 -0.000000 142.727251
RightHand 12.772081 -0.000000 -21.555774
RightHandThumb1 -24.326973 -0.000000 -32.862282
LeftUpLeg 7.167862 12.210918 4.907219
LeftLeg -9.136300 -0.000000 0.000000
LeftFoot -12.943094 24.068333 -10.628340
LeftToeBase 21.389250 -0.000000 -0.000000
RightUpLeg 5.978025 -8.973441 0.745683
RightLeg -4.880856 -0.000000 0.000000
RightFoot -4.812846 -25.771125 7.358454
RightToeBase 11.998798 -0.000000 -0.000000
832
root -5.426166 35.347551 -10.352719 0.914790 -0.398541 -4.078151
Spine -5.650892 0.814834 2.277135
Head -7.584768 -0.507878 -4.134786
LeftShoulder -21.178135 9.337373 -15.955514
LeftArm 20.546645 15.991880 -67.872425
LeftForeArm 14.744040 0.000000 12.068383
LeftHand 2.248122 -0.000000 -8.881123
LeftHandThumb1 -26.253704 0.000000 33.147579
RightShoulder -7.318416 20.483939 -49.923078
RightArm 33.227498 5.140853 -16.858485
RightForeArm -72.555870 -0.000000 141.159201
RightHand 12.338747 -0.000000 -22.362472
RightHandThumb1 -24.326973 -0.000000 -32.862282
LeftUpLeg 7.194186 12.208995 4.905969
LeftLeg -9.127579 -0.000000 0.000000
LeftFoot -12.953793 24.088469 -10.620105
LeftToeBase 21.426291 -0.000000 -0.000000
RightUpLeg 5.991739 -8.958812 0.738360
RightLeg -4.864168 -0.000000 0.000000
RightFoot -4.823115 -25.788578 7.302500
RightToeBase 12.074777 -0.000000 -0.000000
833
root -5.424424 35.347948 -10.352183 0.890007 -0.419822 -4.076562
Spine -5.650417 0.786527 2.330908
Head -7.463501 -0.366267 -4.191271
LeftShoulder -21.131161 9.374704 -15.952516
LeftArm 20.536725 15.987104 -67.903079
LeftForeArm 14.797703 -0.000000 12.086245
LeftHand 2.247762 0.000000 -8.813265
LeftHandThumb1 -26.253704 0.000000 33.147579
RightShoulder -7.290129 20.536665 -49.837399
RightArm 33.073227 5.896762 -16.697116
RightForeArm -72.375684 -0.000000 139.480621
RightHand 12.973439 -0.000000 -23.250368
RightHandThumb1 -24.326973 -0.000000 -32.862282
LeftUpLeg 7.220469 12.215755 4.906217
LeftLeg -9.118729 -0.000000 0.000000
LeftFoot -12.967351 24.096224 -10.644713
LeftToeBase 21.400788 -0.000000 -0.000000
RightUpLeg 6.005910 -8.937485 0.727558
RightLeg -4.843590 -0.000000 0.000000
RightFoot -4.831194 -25.766938 7.366235
RightToeBase 11.974903 -0.000000 -0.000000
834
root -5.424567 35.347180 -10.350205 0.866663 -0.453148 -4.078528
Spine -5.650550 0.768947 2.357231
Head -7.333426 -0.165889 -4.177262
LeftShoulder -21.128455 9.418012 -15.913284
LeftArm 20.572657 16.003902 -67.957208
LeftForeArm 14.863788 -0.000000 12.059798
LeftHand 2.339711 -0.000000 -8.767568
LeftHandThumb1 -26.253704 0.000000 33.147579
RightShoulder -7.274645 20.660365 -49.813186
RightArm 32.862980 6.660538 -16.349884
RightForeArm -72.044357 -0.000000 137.681868
RightHand 13.244917 -0.000000 -22.864430
RightHandThumb1 -24.326973 -0.000000 -32.862282
LeftUpLeg 7.249708 12.231906 4.914936
LeftLeg -9.106501 -0.000000 0.000000
LeftFoot -12.985104 24.103496 -10.636327
LeftToeBase 21.377157 -0.000000 -0.000000
RightUpLeg 6.019079 -8.928277 0.726764
RightLeg -4.824090 -0.000000 0.000000
RightFoot -4.852898 -25.763947 7.313025
RightToeBase 12.099310 -0.000000 -0.000000
835
root -5.423113 35.347324 -10.348504 0.844383 -0.484931 -4.076456
Spine -5.636372 0.689588 2.404016
Head -7.298031 -0.036295 -4.194470
LeftShoulder -21.195586 9.410773 -15.906975
LeftArm 20.592167 16.046411 -67.983963
LeftForeArm 14.908716 -0.000000 12.063980
LeftHand 2.321866 -0.000000 -8.794866
LeftHandThumb1 -26.253704 0.000000 33.147579
RightShoulder -7.282925 20.897198 -49.866419
RightArm 32.747860 7.050851 -16.157176
RightForeArm -71.887918 -0.000000 135.882800
RightHand 12.065877 -0.000000 -22.122098
RightHandThumb1 -24.326973 -0.000000 -32.862282
LeftUpLeg 7.275554 12.262141 4.917905
LeftLeg -9.090845 -0.000000 0.000000
LeftFoot -12.995044 24.103768 -10.625298
LeftToeBase 21.389276 -0.000000 -0.000000
RightUpLeg 6.030819 -8.933432 0.716463
RightLeg -4.807495 -0.000000 0.000000
RightFoot -4.823204 -25.730199 7.307959
RightToeBase 11.977795 -0.000000 -0.000000
836
root -5.422414 35.347452 -10.347467 0.818293 -0.523038 -4.074529
Spine -5.639128 0.668155 2.438296
Head -7.217275 0.009935 -4.216717
LeftShoulder -21.189697 9.451542 -15.884205
LeftArm 20.631007 16.077591 -68.014690
LeftForeArm 14.988637 0.000000 12.048285
LeftHand 2.333155 0.000000 -8.800708
LeftHandThumb1 -26.253704 0.000000 33.147579
RightShoulder -7.220048 20.990149 -49.828394
RightArm 32.503312 7.693872 -15.922860
RightForeArm -71.822616 -0.000000 133.970512
RightHand 11.190736 -0.000000 -21.610649
RightHandThumb1 -24.326973 -0.000000 -32.862282
LeftUpLeg 7.302301 12.289334 4.922300
LeftLeg -9.071305 -0.000000 0.000000
LeftFoot -13.028783 24.094838 -10.666600
LeftToeBase 21.395632 -0.000000 -0.000000
RightUpLeg 6.039902 -8.942659 0.708096
RightLeg -4.782971 -0.000000 0.000000
RightFoot -4.836698 -25.695114 7.253337
RightToeBase 12.263622 -0.000000 -0.000000
837
root -5.420967 35.347485 -10.346355 0.792252 -0.567362 -4.071260
Spine -5.632136 0.647559 2.485761
Head -7.163786 0.056098 -4.246885
LeftShoulder -21.191971 9.451203 -15.874209
LeftArm 20.642788 16.135401 -68.029389
LeftForeArm 15.090562 -0.000000 12.041910
LeftHand 2.312920 -0.000000 -8.902021
LeftHandThumb1 -26.253704 0.000000 33.147579
RightShoulder -7.167428 21.132611 -49.857508
RightArm 32.273499 8.354543 -15.564774
RightForeArm -72.002010 0.000000 132.018683
RightHand 11.730578 0.000000 -19.900736
RightHandThumb1 -24.326973 -0.000000 -32.862282
LeftUpLeg 7.331872 12.318462 4.923759
LeftLeg -9.050369 -0.000000 0.000000
LeftFoot -13.033324 24.099690 -10.659262
LeftToeBase 21.353205 -0.000000 -0.000000
RightUpLeg 6.047502 -8.943891 0.697913
RightLeg -4.750527 -0.000000 0.000000
RightFoot -4.851287 -25.668170 7.246070
RightToeBase 12.089911 -0.000000 -0.000000
